# xmcd
# 
# Track frame offsets:
#     150
#     6854
#     24608
#     39560
#     57308
#     74858
#     92643
#     106810
#     119093
#     134638
#     144378
#     165841
#     167690
#     183642
#     204329
#     209975
#     230654
#     233693
#     251496
# 
# Disc length: 3388
# 
# Revision: 42
# Processed by: cddbd v1.5.2PL0 Copyright (c) Steve Scherf et al.
# Submitted via: fre:ac v1.0.17
# 
DISCID=1a0d3a13
DTITLE=Various / Speakerboxxx | The Love Below, Disc 1
DYEAR=2003
DGENRE=Rap*
TTITLE0=Outkast / {Intro}
TTITLE1=Outkast / Ghettomusick
TTITLE2=Outkast / Unhappy
TTITLE3=Outkast Featuring Sleepy Brown & Jazze Pha / Bowtie
TTITLE4=Outkast Featuring Sleepy Brown / The Way You Move
TTITLE5=Outkast / The Rooster
TTITLE6=Outkast Featuring Killer Mike / Bust
TTITLE7=Outkast / War
TTITLE8=Outkast / Church
TTITLE9=OutKast / Bamboo {Interlude}
TTITLE10=Outkast Featuring Konkrete, Big Gipp & Ludacris / Tomb Of The Boom
TTITLE11=OutKast / E-Mac {Interlude}
TTITLE12=Outkast / Knowing
TTITLE13=Outkast Featuring Killer Mike & Jay-Z / Flip Flop Rock
TTITLE14=Outkast / Interlude
TTITLE15=Outkast Featuring Khujo Goodie & Cee-Lo / Reset
TTITLE16=OutKast / D-Boi {Interlude}
TTITLE17=Outkast Featuring Slimm Calhoun, Lil Jon & The Eastside Boys & Mello / Last Call
TTITLE18=Outkast / Bowtie {Postlude}
EXTD=
EXTT0=
EXTT1=
EXTT2=
EXTT3=
EXTT4=
EXTT5=
EXTT6=
EXTT7=
EXTT8=
EXTT9=
EXTT10=
EXTT11=
EXTT12=
EXTT13=
EXTT14=
EXTT15=
EXTT16=
EXTT17=
EXTT18=
PLAYORDER=
